<svg width="43" height="44" viewBox="0 0 43 44" fill="none" xmlns="http://www.w3.org/2000/svg">
<g clip-path="url(#clip0_20948_41)">
<path d="M42.1497 4.37073C41.6268 3.71344 40.8436 3.35156 39.9441 3.35156C39.4551 3.35156 38.9371 3.45731 38.4047 3.66644L2.16615 17.8841C0.243012 18.6384 -0.0159982 19.7703 0.000659397 20.3779C0.017317 20.9855 0.338385 22.1007 2.30007 22.7422C2.31183 22.7459 2.32358 22.7496 2.33534 22.753L9.85219 24.9638L13.9173 36.9112C14.4716 38.5399 15.7157 39.5517 17.1646 39.5517C18.0781 39.5517 18.9767 39.1583 19.7632 38.4144L24.4126 34.0145L31.1563 39.5954C31.157 39.596 31.158 39.5964 31.1586 39.597L31.2226 39.6501C31.2285 39.6548 31.2347 39.6598 31.2406 39.6645C31.9902 40.2621 32.8084 40.5776 33.6076 40.5779H33.608C35.1695 40.5779 36.413 39.3899 36.7752 37.5517L42.7128 7.41849C42.9513 6.20898 42.7514 5.12671 42.1497 4.37073V4.37073ZM12.3668 24.5439L26.8691 16.9294L17.839 26.791C17.6911 26.9525 17.5862 27.1502 17.5346 27.3654L15.7934 34.6143L12.3668 24.5439ZM18.0638 36.5177C18.0037 36.5745 17.9432 36.6252 17.8828 36.6718L19.4983 29.9472L22.4369 32.3793L18.0638 36.5177ZM40.2544 6.90656L34.3167 37.0401C34.2596 37.3284 34.077 37.9995 33.6076 37.9995C33.3757 37.9995 33.0844 37.8696 32.7862 37.6336L25.1446 31.3098C25.1436 31.3088 25.1423 31.3078 25.141 31.3071L20.5941 27.544L33.6527 13.2827C34.0708 12.8262 34.1087 12.1269 33.7425 11.6254C33.3761 11.1239 32.712 10.9661 32.1689 11.2514L10.691 22.5287L3.07187 20.2883L39.2993 6.07504C39.6054 5.95486 39.819 5.92969 39.9441 5.92969C40.0208 5.92969 40.1573 5.93909 40.208 6.0032C40.2746 6.08679 40.3595 6.3718 40.2544 6.90656V6.90656Z" fill="#2352DE"/>
</g>
<defs>
<clipPath id="clip0_20948_41">
<rect width="42.8108" height="44" fill="white"/>
</clipPath>
</defs>
</svg>
